<svg width="512" height="512" viewBox="0 0 512 512" fill="none" xmlns="http://www.w3.org/2000/svg">
<path d="M256 12.7998C121.856 12.7998 12.7998 121.856 12.7998 256C12.7998 390.144 121.856 499.2 256 499.2C390.144 499.2 499.2 390.144 499.2 256C499.2 121.856 390.144 12.7998 256 12.7998ZM256 143.872C297.984 143.872 332.288 178.176 332.288 220.16C332.288 262.144 297.984 296.448 256 296.448C214.016 296.448 179.712 262.144 179.712 220.16C179.712 178.176 214.016 143.872 256 143.872ZM133.12 412.16C151.04 361.472 199.168 325.12 256 325.12C312.832 325.12 360.96 361.472 378.88 412.16C345.088 438.784 302.08 455.168 256 455.168C209.408 454.656 166.912 438.784 133.12 412.16Z" fill="url(#paint0_linear_390_3)"/>
<defs>
<linearGradient id="paint0_linear_390_3" x1="-0.261319" y1="-24.8373" x2="470.861" y2="491.469" gradientUnits="userSpaceOnUse">
<stop stop-color="#97E0FF"/>
<stop offset="1" stop-color="#1075FF"/>
</linearGradient>
</defs>
</svg>
